<svg width="16" height="16" viewBox="0 0 16 16" fill="none" xmlns="http://www.w3.org/2000/svg">
<g clip-path="url(#clip0_17_6391)">
<path d="M0 0H3.2V3.2H0V0Z" fill="white"/>
<path d="M3.2 3.2H6.4V6.4H3.2V3.2Z" fill="white"/>
<path d="M6.4 6.4H9.6V9.6H6.4V6.4Z" fill="white"/>
<path d="M9.6 3.2H12.8V6.4H9.6V3.2Z" fill="white"/>
<path d="M12.8 0H16V3.2H12.8V0Z" fill="white"/>
<path d="M3.2 9.6H6.4V12.8H3.2V9.6Z" fill="white"/>
<path d="M0 12.8H3.2V16H0V12.8Z" fill="white"/>
<path d="M9.6 6.4H12.8V9.6H9.6V6.4Z" fill="white"/>
<path d="M12.8 6.4H16V9.6H12.8V6.4Z" fill="white"/>
<path d="M3.2 6.4H6.4V9.6H3.2V6.4Z" fill="white"/>
<path d="M0 6.4H3.2V9.6H0V6.4Z" fill="white"/>
<path d="M6.4 9.6H9.6V12.8H6.4V9.6Z" fill="white"/>
<path d="M6.4 12.8H9.6V16H6.4V12.8Z" fill="white"/>
<path d="M9.6 9.6H12.8V12.8H9.6V9.6Z" fill="white"/>
<path d="M12.8 12.8H16V16H12.8V12.8Z" fill="white"/>
<path d="M6.4 3.2H9.6V6.4H6.4V3.2Z" fill="white"/>
<path d="M6.4 0H9.6V3.2H6.4V0Z" fill="white"/>
</g>
<defs>
<clipPath id="clip0_17_6391">
<rect width="16" height="16" fill="white"/>
</clipPath>
</defs>
</svg>
