<svg width="14" height="14" viewBox="0 0 14 14" fill="none" xmlns="http://www.w3.org/2000/svg">
<g clip-path="url(#clip0_17_6310)">
<path d="M0 0H2.8V2.8H0V0Z" fill="#6B6B6B"/>
<path d="M2.8 2.8H5.6V5.6H2.8V2.8Z" fill="#6B6B6B"/>
<path d="M5.6 5.6H8.4V8.4H5.6V5.6Z" fill="#6B6B6B"/>
<path d="M8.4 2.8H11.2V5.6H8.4V2.8Z" fill="#6B6B6B"/>
<path d="M11.2 0H14V2.8H11.2V0Z" fill="#6B6B6B"/>
<path d="M2.8 8.4H5.6V11.2H2.8V8.4Z" fill="#6B6B6B"/>
<path d="M0 11.2H2.8V14H0V11.2Z" fill="#6B6B6B"/>
<path d="M8.4 5.6H11.2V8.4H8.4V5.6Z" fill="#6B6B6B"/>
<path d="M11.2 5.6H14V8.4H11.2V5.6Z" fill="#6B6B6B"/>
<path d="M2.8 5.6H5.6V8.4H2.8V5.6Z" fill="#6B6B6B"/>
<path d="M0 5.6H2.8V8.4H0V5.6Z" fill="#6B6B6B"/>
<path d="M5.6 8.4H8.4V11.2H5.6V8.4Z" fill="#6B6B6B"/>
<path d="M5.6 11.2H8.4V14H5.6V11.2Z" fill="#6B6B6B"/>
<path d="M8.4 8.4H11.2V11.2H8.4V8.4Z" fill="#6B6B6B"/>
<path d="M11.2 11.2H14V14H11.2V11.2Z" fill="#6B6B6B"/>
<path d="M5.6 2.8H8.4V5.6H5.6V2.8Z" fill="#6B6B6B"/>
<path d="M5.6 0H8.4V2.8H5.6V0Z" fill="#6B6B6B"/>
</g>
<defs>
<clipPath id="clip0_17_6310">
<rect width="14" height="14" fill="white"/>
</clipPath>
</defs>
</svg>
