<svg width="28" height="28" viewBox="0 0 28 28" fill="none" xmlns="http://www.w3.org/2000/svg">
<path d="M3.33333 5.83337C2.78104 5.83337 2.33333 6.28109 2.33333 6.83337V7.16671C2.33333 7.71899 2.78104 8.16671 3.33333 8.16671H24.6667C25.2189 8.16671 25.6667 7.71899 25.6667 7.16671V6.83337C25.6667 6.28109 25.2189 5.83337 24.6667 5.83337H3.33333ZM3.33333 12.8334C2.78104 12.8334 2.33333 13.2811 2.33333 13.8334V14.1667C2.33333 14.719 2.78104 15.1667 3.33333 15.1667H24.6667C25.2189 15.1667 25.6667 14.719 25.6667 14.1667V13.8334C25.6667 13.2811 25.2189 12.8334 24.6667 12.8334H3.33333ZM3.33333 19.8334C2.78104 19.8334 2.33333 20.2811 2.33333 20.8334V21.1667C2.33333 21.719 2.78104 22.1667 3.33333 22.1667H24.6667C25.2189 22.1667 25.6667 21.719 25.6667 21.1667V20.8334C25.6667 20.2811 25.2189 19.8334 24.6667 19.8334H3.33333Z" fill="white"/>
</svg>
