<svg width="16" height="16" viewBox="0 0 16 16" fill="none" xmlns="http://www.w3.org/2000/svg">
<path d="M6 6V4.66666H5.33333V3.99999H4.66666V3.33333H3.33333V4.66666H3.99999V5.33333H4.66666V6H6Z" fill="white"/>
<path d="M7.33333 1.33333H8.66666V4.66666H7.33333V1.33333Z" fill="white"/>
<path d="M11.3333 3.33333H12.6667V4.66666H12V5.33333H11.3333V6H10V4.66666H10.6667V3.99999H11.3333V3.33333Z" fill="white"/>
<path d="M11.3333 7.33333V8.66666H14.6667V7.33333H11.3333Z" fill="white"/>
<path d="M10 10H11.3333V10.6667H12V11.3333H12.6667V12.6667H11.3333V12H10.6667V11.3333H10V10Z" fill="white"/>
<path d="M7.33333 11.3333H8.66666V14.6667H7.33333V11.3333Z" fill="white"/>
<path d="M5.33333 11.3333H6V10H4.66666V10.6667H3.99999V11.3333H3.33333V12.6667H4.66666V12H5.33333V11.3333Z" fill="white"/>
<path d="M4.66666 7.33333H1.33333V8.66666H4.66666V7.33333Z" fill="white"/>
</svg>
