<svg width="25" height="25" viewBox="0 0 25 25" fill="none" xmlns="http://www.w3.org/2000/svg">
<path d="M9.37499 9.37501V7.29168H8.33333V6.25001H7.29166V5.20834H5.20833V7.29168H6.24999V8.33334H7.29166V9.37501H9.37499Z" fill="black"/>
<path d="M11.4583 2.08334H13.5417V7.29168H11.4583V2.08334Z" fill="black"/>
<path d="M17.7083 5.20834H19.7917V7.29168H18.75V8.33334H17.7083V9.37501H15.625V7.29168H16.6667V6.25001H17.7083V5.20834Z" fill="black"/>
<path d="M17.7083 11.4583V13.5417H22.9167V11.4583H17.7083Z" fill="black"/>
<path d="M15.625 15.625H17.7083V16.6667H18.75V17.7083H19.7917V19.7917H17.7083V18.75H16.6667V17.7083H15.625V15.625Z" fill="black"/>
<path d="M11.4583 17.7083H13.5417V22.9167H11.4583V17.7083Z" fill="black"/>
<path d="M8.33333 17.7083H9.37499V15.625H7.29166V16.6667H6.24999V17.7083H5.20833V19.7917H7.29166V18.75H8.33333V17.7083Z" fill="black"/>
<path d="M7.29166 11.4583H2.08333V13.5417H7.29166V11.4583Z" fill="black"/>
</svg>
