<svg width="86" height="26" viewBox="0 0 86 26" fill="none" xmlns="http://www.w3.org/2000/svg">
<path d="M19.4441 25.1498H0.934326V19.9302L11.6367 6.06982H2.16246V0.850237H18.6107V6.06982L7.9084 19.9302H19.4441V25.1498Z" fill="white"/>
<path d="M46.0228 13.3509C46.0228 14.2282 45.979 14.7545 45.8035 15.5879H26.9867C27.6885 18.5267 30.2325 20.3689 33.6976 20.3689C36.11 20.3689 37.5574 19.7109 39.0488 17.9564H45.4088C43.7859 22.9567 38.7417 25.72 33.8292 25.72C26.4165 25.72 20.6705 20.1934 20.6705 13.0878C20.6705 5.93824 26.3288 0.280029 33.4783 0.280029C40.7155 0.280029 46.0228 5.80665 46.0228 13.3509ZM40.2769 10.456C39.5312 7.34182 37.1627 5.6312 33.566 5.6312C30.1009 5.6312 27.7323 7.34182 26.8112 10.456H40.2769Z" fill="white"/>
<path d="M59.9555 5.89437C56.4466 5.9821 54.736 7.86817 54.736 11.6403V25.1498H48.9023V0.850237H54.2535V3.21879C55.7886 0.981823 57.0168 0.280029 59.5169 0.280029H59.9555V5.89437Z" fill="white"/>
<path d="M86 13.1755C86 20.018 80.1225 25.72 73.0607 25.72C65.955 25.72 60.1653 20.018 60.1653 13C60.1653 6.02596 65.955 0.280029 73.0168 0.280029C80.3418 0.280029 86 5.93824 86 13.1755ZM80.1225 13C80.1225 8.96472 76.9644 5.6312 73.0607 5.6312C69.2447 5.6312 66.0428 8.92086 66.0428 12.9123C66.0428 17.0792 69.157 20.3689 73.1046 20.3689C76.9644 20.3689 80.1225 17.0792 80.1225 13Z" fill="white"/>
</svg>
