<svg width="86" height="26" viewBox="0 0 86 26" fill="none" xmlns="http://www.w3.org/2000/svg">
<path d="M18.5098 25.1498H0V19.9302L10.7023 6.06982H1.22814V0.850237H17.6764V6.06982L6.97407 19.9302H18.5098V25.1498Z" fill="white"/>
<path d="M45.0885 13.3509C45.0885 14.2282 45.0446 14.7545 44.8692 15.5879H26.0524C26.7542 18.5267 29.2981 20.3689 32.7633 20.3689C35.1757 20.3689 36.6231 19.7109 38.1144 17.9564H44.4744C42.8515 22.9567 37.8074 25.72 32.8948 25.72C25.4821 25.72 19.7362 20.1934 19.7362 13.0878C19.7362 5.93824 25.3944 0.280029 32.5439 0.280029C39.7812 0.280029 45.0885 5.80665 45.0885 13.3509ZM39.3426 10.456C38.5969 7.34182 36.2284 5.6312 32.6317 5.6312C29.1666 5.6312 26.798 7.34182 25.8769 10.456H39.3426Z" fill="white"/>
<path d="M59.0212 5.89437C55.5122 5.9821 53.8016 7.86817 53.8016 11.6403V25.1498H47.968V0.850237H53.3191V3.21879C54.8543 0.981823 56.0825 0.280029 58.5826 0.280029H59.0212V5.89437Z" fill="white"/>
<path d="M85.0657 13.1755C85.0657 20.018 79.1882 25.72 72.1264 25.72C65.0207 25.72 59.2309 20.018 59.2309 13C59.2309 6.02596 65.0207 0.280029 72.0825 0.280029C79.4075 0.280029 85.0657 5.93824 85.0657 13.1755ZM79.1882 13C79.1882 8.96472 76.0301 5.6312 72.1264 5.6312C68.3104 5.6312 65.1084 8.92086 65.1084 12.9123C65.1084 17.0792 68.2226 20.3689 72.1702 20.3689C76.0301 20.3689 79.1882 17.0792 79.1882 13Z" fill="white"/>
</svg>
