<svg width="86" height="26" viewBox="0 0 86 26" fill="none" xmlns="http://www.w3.org/2000/svg">
<path d="M18.5098 25.1496H0V19.93L10.7023 6.06958H1.22814V0.849993H17.6764V6.06958L6.97407 19.93H18.5098V25.1496Z" fill="white"/>
<path d="M45.0885 13.3507C45.0885 14.2279 45.0446 14.7543 44.8692 15.5876H26.0524C26.7542 18.5264 29.2981 20.3686 32.7633 20.3686C35.1757 20.3686 36.6231 19.7107 38.1144 17.9562H44.4744C42.8515 22.9565 37.8074 25.7198 32.8948 25.7198C25.4821 25.7198 19.7362 20.1932 19.7362 13.0875C19.7362 5.93799 25.3944 0.279785 32.5439 0.279785C39.7812 0.279785 45.0885 5.80641 45.0885 13.3507ZM39.3426 10.4558C38.5969 7.34158 36.2284 5.63096 32.6317 5.63096C29.1666 5.63096 26.798 7.34158 25.8769 10.4558H39.3426Z" fill="white"/>
<path d="M59.0212 5.89413C55.5122 5.98185 53.8016 7.86792 53.8016 11.6401V25.1496H47.968V0.849993H53.3191V3.21854C54.8543 0.981579 56.0825 0.279785 58.5826 0.279785H59.0212V5.89413Z" fill="white"/>
<path d="M85.0657 13.1752C85.0657 20.0177 79.1882 25.7198 72.1264 25.7198C65.0207 25.7198 59.2309 20.0177 59.2309 12.9998C59.2309 6.02572 65.0207 0.279785 72.0825 0.279785C79.4075 0.279785 85.0657 5.93799 85.0657 13.1752ZM79.1882 12.9998C79.1882 8.96448 76.0301 5.63096 72.1264 5.63096C68.3104 5.63096 65.1084 8.92061 65.1084 12.9121C65.1084 17.079 68.2226 20.3686 72.1702 20.3686C76.0301 20.3686 79.1882 17.079 79.1882 12.9998Z" fill="white"/>
</svg>
