<svg width="86" height="26" viewBox="0 0 86 26" fill="none" xmlns="http://www.w3.org/2000/svg">
<path d="M18.977 25.1498H0.467163V19.9302L11.1695 6.06982H1.6953V0.850237H18.1436V6.06982L7.44123 19.9302H18.977V25.1498Z" fill="white"/>
<path d="M45.5557 13.3509C45.5557 14.2282 45.5118 14.7545 45.3363 15.5879H26.5195C27.2213 18.5267 29.7653 20.3689 33.2304 20.3689C35.6428 20.3689 37.0903 19.7109 38.5816 17.9564H44.9416C43.3187 22.9567 38.2746 25.72 33.362 25.72C25.9493 25.72 20.2034 20.1934 20.2034 13.0878C20.2034 5.93824 25.8616 0.280029 33.0111 0.280029C40.2483 0.280029 45.5557 5.80665 45.5557 13.3509ZM39.8097 10.456C39.0641 7.34182 36.6955 5.6312 33.0988 5.6312C29.6337 5.6312 27.2652 7.34182 26.3441 10.456H39.8097Z" fill="white"/>
<path d="M59.4884 5.89437C55.9794 5.9821 54.2688 7.86817 54.2688 11.6403V25.1498H48.4351V0.850237H53.7863V3.21879C55.3215 0.981823 56.5496 0.280029 59.0498 0.280029H59.4884V5.89437Z" fill="white"/>
<path d="M85.5329 13.1755C85.5329 20.018 79.6553 25.72 72.5935 25.72C65.4879 25.72 59.6981 20.018 59.6981 13C59.6981 6.02596 65.4879 0.280029 72.5497 0.280029C79.8746 0.280029 85.5329 5.93824 85.5329 13.1755ZM79.6553 13C79.6553 8.96472 76.4973 5.6312 72.5935 5.6312C68.7775 5.6312 65.5756 8.92086 65.5756 12.9123C65.5756 17.0792 68.6898 20.3689 72.6374 20.3689C76.4973 20.3689 79.6553 17.0792 79.6553 13Z" fill="white"/>
</svg>
