<svg width="86" height="26" viewBox="0 0 86 26" fill="none" xmlns="http://www.w3.org/2000/svg">
<path d="M18.5098 25.1498H0V19.9302L10.7023 6.06979H1.22814V0.850206H17.6764V6.06979L6.97407 19.9302H18.5098V25.1498Z" fill="white"/>
<path d="M45.0885 13.3509C45.0885 14.2281 45.0446 14.7545 44.8692 15.5879H26.0524C26.7542 18.5266 29.2981 20.3688 32.7633 20.3688C35.1757 20.3688 36.6231 19.7109 38.1144 17.9564H44.4744C42.8515 22.9567 37.8074 25.72 32.8948 25.72C25.4821 25.72 19.7362 20.1934 19.7362 13.0877C19.7362 5.93821 25.3944 0.279999 32.5439 0.279999C39.7812 0.279999 45.0885 5.80662 45.0885 13.3509ZM39.3426 10.456C38.5969 7.34179 36.2284 5.63117 32.6317 5.63117C29.1666 5.63117 26.798 7.34179 25.8769 10.456H39.3426Z" fill="white"/>
<path d="M59.0212 5.89434C55.5122 5.98207 53.8016 7.86814 53.8016 11.6403V25.1498H47.968V0.850206H53.3191V3.21876C54.8543 0.981793 56.0825 0.279999 58.5826 0.279999H59.0212V5.89434Z" fill="white"/>
<path d="M85.0657 13.1754C85.0657 20.0179 79.1882 25.72 72.1264 25.72C65.0207 25.72 59.2309 20.0179 59.2309 13C59.2309 6.02593 65.0207 0.279999 72.0825 0.279999C79.4075 0.279999 85.0657 5.93821 85.0657 13.1754ZM79.1882 13C79.1882 8.96469 76.0301 5.63117 72.1264 5.63117C68.3104 5.63117 65.1084 8.92083 65.1084 12.9123C65.1084 17.0792 68.2226 20.3688 72.1702 20.3688C76.0301 20.3688 79.1882 17.0792 79.1882 13Z" fill="white"/>
</svg>
